<?xml version="1.0"?>
<!--Icons from directory ""-->
<svg xmlns="http://www.w3.org/2000/svg" width="74" height="1346" viewBox="0 0 74 1346"><svg xmlns:xlink="http://www.w3.org/1999/xlink" width="67" height="71" id="10" y="0"><defs><path id="10-a" d="M545.46 800.21v25.15s5.96 8.38 0 16.76v27.23l-32.38-23.2v-25.5zm-35.79 22.02v22.86h-21.83c-6.23 0-6.23-11.43-6.23-11.43 0-12.18 7.31-11.43 7.31-11.43zm-21.83 25.4h15.8l4.95 11.16c3.46 9.16-3.08 10.81-3.08 10.81-9.87 2.94-11.25-3.51-11.25-3.51z"/><path id="10-c" d="M479.91 875.11v-79.12h39.16v79.12z"/><clipPath id="10-b"><use xlink:href="#10-a"/></clipPath></defs><use fill="#65aacd" xlink:href="#10-a" transform="translate(-481 -800)"/><g clip-path="url(#10-b)" transform="translate(-481 -800)"><use fill="#6ebadf" xlink:href="#10-c"/></g></svg><svg xmlns:xlink="http://www.w3.org/1999/xlink" width="70" height="69" id="11" y="71"><defs><path id="11-a" d="M663.16 837.65l7.09 7.39-23.71 23.1a4.94 4.94 0 0 1-6.96-.17l-.3-.3a4.87 4.87 0 0 1 .16-6.92zm41.48-15.85a1.71 1.71 0 0 0-3.42 0c0 9.54-7.81 17.3-17.42 17.3a1.7 1.7 0 1 0 0 3.4 20.8 20.8 0 0 0 20.84-20.7zm-19.99-20.71a22.48 22.48 0 0 1 22.56 22.4c0 12.38-10.1 22.41-22.56 22.41a22.48 22.48 0 0 1-22.56-22.4c0-12.38 10.1-22.41 22.56-22.41z"/><path id="11-c" d="M634.86 872.55v-79.12h39.16v79.12z"/><clipPath id="11-b"><use xlink:href="#11-a"/></clipPath></defs><use fill="#65aacd" xlink:href="#11-a" transform="translate(-638 -801)"/><g clip-path="url(#11-b)" transform="translate(-638 -801)"><use fill="#6ebadf" xlink:href="#11-c"/></g></svg><svg xmlns:xlink="http://www.w3.org/1999/xlink" width="68" height="69" id="12" y="140"><defs><path id="12-a" d="M806.23 869.15a7.21 7.21 0 1 1 .2-14.44l7.01-7.03v-.2a7.21 7.21 0 0 1 9.96-6.67l26.07-26.13.5-3.2 9.41-6.03 3.6 3.41-5.2 9.53-3.2.5-27.07 26.4a7.23 7.23 0 0 1-6.62 9.4l-7.49 7.93a7.21 7.21 0 0 1-7.17 6.53zm57.65-7.22a7.21 7.21 0 0 1-12.72 4.64l-19.3-20.5 8.5-9.02 20.78 19.2a7.21 7.21 0 0 1 2.74 5.68zm-56.35-60.19c15.32-1.5 19.62 10.64 18.82 20.26l5 5.22-10.7 9.83-3.81-4.21c-13.61.4-21.92-7.22-20.62-19.96l9 9.22 9.12-2 2-8.63z"/><path id="12-c" d="M789.81 879.36v-79.12h39.16v79.12z"/><clipPath id="12-b"><use xlink:href="#12-a"/></clipPath></defs><use fill="#65aacd" xlink:href="#12-a" transform="translate(-796 -801)"/><g clip-path="url(#12-b)" transform="translate(-796 -801)"><use fill="#6ebadf" xlink:href="#12-c"/></g></svg><svg xmlns:xlink="http://www.w3.org/1999/xlink" width="65" height="69" id="13" y="209"><defs><path id="13-a" d="M499.13 1009.92a8.54 8.54 0 0 1-.57-12.07l9.2-10.11a8.55 8.55 0 0 1 12.06-.58m25.3 22.99a8.54 8.54 0 0 1 .57 12.07l-9.2 10.1a8.55 8.55 0 0 1-12.07.58m-10.58-6.15l-21.97 24.84a4.91 4.91 0 0 1-6.94.33l-.32-.28a4.91 4.91 0 0 1-.33-6.94l21.98-24.84m16.26 11.32l-21.5-19.54 20.7-22.75 21.5 19.54z"/><path id="13-c" d="M478.2 1056.32V977.2h39.16v79.12z"/><clipPath id="13-b"><use xlink:href="#13-a"/></clipPath></defs><use fill="#65aacd" xlink:href="#13-a" transform="translate(-483 -985)"/><g clip-path="url(#13-b)" transform="translate(-483 -985)"><use fill="#6ebadf" xlink:href="#13-c"/></g></svg><svg xmlns:xlink="http://www.w3.org/1999/xlink" width="73" height="71" id="14" y="278"><defs><path id="14-a" d="M701.84 1044.32c0 5.66-4.6 10.26-10.27 10.26h-37.65c-5.67 0-10.27-4.6-10.27-10.26v-42.74l-4.4 2.1a1.7 1.7 0 1 1-1.47-3.09l6.7-3.21 27.53-13.17a1.65 1.65 0 0 1 1.47 0l27.37 13.1 6.86 3.28a1.7 1.7 0 0 1 .8 2.29 1.7 1.7 0 0 1-2.28.8l-4.4-2.1zm-12.4-30.2l-5.44-5.45a1.25 1.25 0 0 0-.9-.37c-.35 0-.67.13-.91.36l-1.82 1.82c-.5.5-.5 1.3 0 1.81l5.43 5.46c.48.47 1.33.48 1.81 0l1.82-1.8c.5-.51.5-1.33 0-1.82zm-31.28 24.56c-.03.32.07.6.27.81.18.2.46.32.77.32h.08l5.06-.35c.84-.06 2.05-.61 2.65-1.2l16.38-16.29c.24-.24.37-.56.37-.9 0-.35-.13-.67-.37-.91l-5.43-5.46a1.28 1.28 0 0 0-1.82 0l-16.38 16.28c-.59.6-1.14 1.8-1.21 2.65zM643.65 999z"/><path id="14-c" d="M634.01 1061.42V982.3h39.16v79.12z"/><clipPath id="14-b"><use xlink:href="#14-a"/></clipPath></defs><use fill="#65aacd" xlink:href="#14-a" transform="translate(-636 -984)"/><g clip-path="url(#14-b)" transform="translate(-636 -984)"><use fill="#6ebadf" xlink:href="#14-c"/></g></svg><svg xmlns:xlink="http://www.w3.org/1999/xlink" width="66" height="68" id="15" y="349"><defs><path id="15-a" d="M861.4 1052.9h-48.49c-.9 0-1.62-.72-1.62-1.62v-63.95c0-.9.73-1.63 1.62-1.63h18.44c.9 0 1.63.73 1.63 1.63v16.3l7.27-3.25c.45-.2.98-.2 1.41.04l6.85 3.55v-16.64c0-.9.73-1.63 1.63-1.63h11.27c.9 0 1.62.73 1.62 1.63v63.95c0 .9-.73 1.63-1.62 1.63zm-55.82 0h-6.48c-.9 0-1.62-.72-1.62-1.62v-63.95c0-.9.72-1.63 1.62-1.63h6.48c.9 0 1.62.73 1.62 1.63v63.95c0 .9-.73 1.63-1.62 1.63z"/><path id="15-c" d="M793.22 1056.32V977.2h39.16v79.12z"/><clipPath id="15-b"><use xlink:href="#15-a"/></clipPath></defs><use fill="#65aacd" xlink:href="#15-a" transform="translate(-797 -985)"/><g clip-path="url(#15-b)" transform="translate(-797 -985)"><use fill="#6ebadf" xlink:href="#15-c"/></g></svg><svg xmlns:xlink="http://www.w3.org/1999/xlink" width="69" height="69" id="16" y="417"><defs><path id="16-a" d="M549.72 1195v51.04c0 4.7-3.81 8.51-8.51 8.51h-51.09a8.51 8.51 0 0 1-8.51-8.5V1195c0-4.7 3.81-8.51 8.51-8.51h51.09c4.7 0 8.51 3.81 8.51 8.5zm-9.78 24.73c.02-.46-.14-.92-.49-1.27l-10.94-10.94a1.7 1.7 0 0 0-2.4 2.4l9.8 9.8-9.8 9.8a1.7 1.7 0 0 0 2.4 2.4l10.94-10.93c.35-.35.51-.81.49-1.26zm-19.8-10.55a1.7 1.7 0 0 0-1.19-2.1c-.9-.24-1.85.3-2.1 1.2l-5.87 21.54a1.7 1.7 0 0 0 3.29.9zm-14.74-.1a1.7 1.7 0 0 0-2.41-2.41l-10.94 10.94c-.35.35-.51.8-.49 1.27-.02.45.14.9.49 1.26l10.94 10.94a1.7 1.7 0 0 0 2.4 0 1.7 1.7 0 0 0 0-2.41l-9.8-9.8z"/><path id="16-c" d="M477.35 1256.25v-79.12h39.16v79.12z"/><clipPath id="16-b"><use xlink:href="#16-a"/></clipPath></defs><use fill="#65aacd" xlink:href="#16-a" transform="translate(-481 -1186)"/><g clip-path="url(#16-b)" transform="translate(-481 -1186)"><use fill="#6ebadf" xlink:href="#16-c"/></g></svg><svg xmlns:xlink="http://www.w3.org/1999/xlink" width="74" height="75" id="17" y="486"><defs><path id="17-a" d="M709.66 1255.05c.14.51.04 1.06-.29 1.48a1.7 1.7 0 0 1-1.35.67h-6.44l-.68-3.4-1.88-9.4a1.7 1.7 0 1 0-3.33.67l1.74 8.72.68 3.4h-3.34l-.52-3.4-.48-3.1a1.7 1.7 0 0 0-1.92-1.46c-.93.14-1.58 1-1.45 1.93l.4 2.63.53 3.4h-16.44v-20.41c0-.94-.77-1.7-1.7-1.7-.94 0-1.7.76-1.7 1.7v20.42H648.8l1.1-3.4 2.25-6.95a1.7 1.7 0 1 0-3.25-1l-2.56 7.94-1.1 3.4h-6.89c-.53 0-1.03-.24-1.35-.66a1.74 1.74 0 0 1-.29-1.48l8.04-30.18h-6.4a1.7 1.7 0 0 1 0-3.4h33.14v-36.59c0-.93.76-1.7 1.7-1.7.93 0 1.7.77 1.7 1.7v36.58h33.13a1.7 1.7 0 0 1 0 3.4h-6.45z"/><path id="17-c" d="M634.02 1259.75v-79.12h39.16v79.12z"/><clipPath id="17-b"><use xlink:href="#17-a"/></clipPath></defs><use fill="#65aacd" xlink:href="#17-a" transform="translate(-636 -1183)"/><g clip-path="url(#17-b)" transform="translate(-636 -1183)"><use fill="#6ebadf" xlink:href="#17-c"/></g></svg><svg xmlns:xlink="http://www.w3.org/1999/xlink" width="72" height="72" id="18" y="561"><defs><path id="18-a" d="M848.77 1245.07a5.54 5.54 0 1 1-3.41 1.19c-2.49-4.21-7.35-6.82-13.47-7.23v6.36a5.52 5.52 0 0 1-1.85 10.74 5.54 5.54 0 0 1-1.56-10.84v-6.26c-6.2.4-14.42 6.63-13.56 7.38l-3.16-1.33c2.77-5.16 8.2-8.5 15.05-9.32-14.56-1.8-26.37-14.2-27.22-28.98h-3.46a1.7 1.7 0 0 1-1.7-1.7c0-.93.76-1.7 1.7-1.7h5.1c.95 0 1.71.77 1.71 1.7 0 7.2 2.95 13.87 7.66 18.83v-.96c0-.94.77-1.7 1.7-1.7h34.91c.94 0 1.7.76 1.7 1.7v2.53a27.42 27.42 0 0 0 9.1-20.4c0-.93.75-1.7 1.7-1.7h4.53c.94 0 1.7.77 1.7 1.7 0 .94-.76 1.7-1.7 1.7h-2.88a30.95 30.95 0 0 1-27.51 29.02c6.71.88 12.03 4.19 14.76 9.28l.16-.01zm-2.13 5.53a2.13 2.13 0 1 0 1.5-2.03 2.15 2.15 0 0 0-1.5 2.03zm-14.47 0a2.13 2.13 0 1 0-4.26 0 2.13 2.13 0 0 0 4.26 0zm-19.44-65.94h34.91c.47 0 .92.2 1.23.54.33.33.5.79.47 1.26l-1.7 30.63c-.05.9-.8 1.6-1.7 1.6h-31.5c-.9 0-1.66-.7-1.7-1.6l-1.71-30.63c-.03-.47.14-.93.47-1.26.31-.34.76-.54 1.23-.54zm-1.42 63.81c-1.17 0-2.13.95-2.13 2.13a2.13 2.13 0 1 0 2.13-2.13zm3.61-2.06a5.51 5.51 0 0 1-3.6 9.72 5.54 5.54 0 0 1-5.54-5.53 5.54 5.54 0 0 1 9.14-4.19zm11.9-10.65zm3.37-.2zm.28-2.97zm-18.16-4.54z"/><path id="18-c" d="M791.02 1260.38v-79.12h39.16v79.12z"/><clipPath id="18-b"><use xlink:href="#18-a"/></clipPath></defs><use fill="#65aacd" xlink:href="#18-a" transform="translate(-794 -1184)"/><g clip-path="url(#18-b)" transform="translate(-794 -1184)"><use fill="#6ebadf" xlink:href="#18-c"/></g></svg><svg xmlns:xlink="http://www.w3.org/1999/xlink" width="72" height="71" id="19" y="633"><defs><path id="19-a" d="M552.94 1423.73v39.13c0 5.64-4.58 10.21-10.21 10.21h-51.09a10.22 10.22 0 0 1-10.21-10.2v-39.14c0-5.63 4.58-10.21 10.21-10.21h11.07v-4.14c0-4.08 4.04-6.92 7.66-6.92h14.9c3.7 0 6.39 2.97 6.39 7.05v4h11.07c5.63 0 10.21 4.59 10.21 10.22zm-17.99 20.72a17.5 17.5 0 0 0-17.47-17.46 17.5 17.5 0 0 0-17.48 17.46 17.5 17.5 0 0 0 17.48 17.47 17.5 17.5 0 0 0 17.47-17.47zm-6.7-34.94c0-1.81-.92-3.65-2.98-3.65h-14.9c-1.97 0-4.25 1.54-4.25 3.52v4.14h22.13zm-10.77 20.88c7.75 0 14.07 6.31 14.07 14.06a14.08 14.08 0 0 1-28.15 0c0-7.75 6.31-14.06 14.08-14.06zm8.25 15.3v-3.63h-6.43v-6.48h-3.65v6.48h-6.43v3.64h6.43v6.4h3.65v-6.4z"/><path id="19-c" d="M478.02 1474.77v-79.12h39.16v79.12z"/><clipPath id="19-b"><use xlink:href="#19-a"/></clipPath></defs><use fill="#65aacd" xlink:href="#19-a" transform="translate(-481 -1402)"/><g clip-path="url(#19-b)" transform="translate(-481 -1402)"><use fill="#6ebadf" xlink:href="#19-c"/></g></svg><svg xmlns:xlink="http://www.w3.org/1999/xlink" width="69" height="66" id="20" y="704"><defs><path id="20-a" d="M707.24 1463.58h-.03l.03.3c0 .64-.5 1.26-1.45 1.85-4.21 2.63-17.22 4.55-32.6 4.55-15.39 0-28.4-1.92-32.61-4.55-.88-.55-1.37-1.12-1.44-1.72v-7.54c0-.15.02-.29.07-.43.17-.49.64-.97 1.37-1.42.8.5 1.92.98 3.33 1.42 2.99.95 7.23 1.73 12.3 2.28 4.99.55 10.79.86 16.98.86 6.18 0 11.98-.31 16.98-.86 5.07-.55 9.3-1.33 12.3-2.28a14.6 14.6 0 0 0 3.32-1.42c.74.45 1.2.93 1.38 1.42.05.14.07.28.07.43zm0-7.11c0 1.37-6.55 2.43-6.25 3.7 3.94-1.05 6.25-2.33 6.25-3.7zm0-7.7h-.03l.03.29c0 .65-.5 1.27-1.45 1.85a18.4 18.4 0 0 1-4.8 1.86c-6.17 1.63-16.32 2.7-27.8 2.7-11.49 0-21.64-1.07-27.81-2.7a18.4 18.4 0 0 1-4.8-1.86c-.87-.54-1.37-1.1-1.44-1.7v-7.69c.07-.6.57-1.18 1.45-1.71a17.1 17.1 0 0 0 4.26 1.7c2.91.82 6.8 1.5 11.35 2 5 .54 10.8.85 16.99.85 6.18 0 11.98-.3 16.98-.85 4.56-.5 8.44-1.18 11.35-2a17.1 17.1 0 0 0 4.27-1.7c.87.53 1.38 1.1 1.44 1.7l.01.15zm0-21.78v7.26c0 .64-.5 1.27-1.45 1.86-1.07.66-2.7 1.28-4.8 1.84-6.17 1.64-16.32 2.71-27.8 2.71-11.49 0-21.64-1.07-27.81-2.7a18.83 18.83 0 0 1-4.8-1.85c-.73-.46-1.2-.94-1.37-1.43a1.26 1.26 0 0 1-.08-.43V1427h.08a1.25 1.25 0 0 1-.08-.43c0-.59.43-1.17 1.24-1.7 1.14.78 3.07 1.5 5.6 2.13 2.76.7 6.26 1.28 10.27 1.7 5 .56 10.77.86 16.95.86 6.16 0 11.95-.3 16.94-.85 4-.43 7.5-1 10.27-1.71 2.53-.63 4.46-1.35 5.6-2.14.82.54 1.24 1.12 1.24 1.71 0 .15-.02.29-.07.43zm0-7.83h-.13c.09.18.13.38.13.57 0 .59-.42 1.17-1.23 1.7-.9.62-2.26 1.2-4.01 1.72-6.04 1.79-16.68 2.99-28.81 2.99-12.14 0-22.78-1.2-28.81-3a14.78 14.78 0 0 1-4.01-1.7c-.81-.54-1.24-1.12-1.24-1.71v-7.69c0-.15.03-.28.08-.43 1.16-3.34 15.93-5.98 33.98-5.98 18.05 0 32.82 2.64 33.98 5.98.05.15.07.28.07.43zm-61.86 26.2c-3.93-1.04-6.25-2.32-6.25-3.7 0 1.38 2.32 2.66 6.25 3.7zm.59-29.48c-4.3-1.06-6.84-2.4-6.84-3.84 0 1.44 2.55 2.78 6.84 3.84z"/><path id="20-c" d="M634.02 1477.11v-79.12h39.16v79.12z"/><clipPath id="20-b"><use xlink:href="#20-a"/></clipPath></defs><use fill="#65aacd" xlink:href="#20-a" transform="translate(-639 -1405)"/><g clip-path="url(#20-b)" transform="translate(-639 -1405)"><use fill="#6ebadf" xlink:href="#20-c"/></g></svg><svg xmlns:xlink="http://www.w3.org/1999/xlink" width="58" height="71" id="21" y="770"><defs><path id="21-a" d="M858.28 1462.38l-.06 1.12c-.07 1.54-1.55 2.53-2 2.8a51.28 51.28 0 0 1-26.4 7.28c-9.26 0-18.36-2.5-26.29-7.23l-.17-.1c-.45-.37-1.55-1.32-1.82-2.45l-.3-1.36 13.05-6.06 1.98-4.9 1.63.34v-7.55c-2.94-4.82-4.69-11.36-4.69-18.64v-14.1a8.53 8.53 0 0 1 8.51-8.55h17.01c4.7 0 8.51 3.83 8.51 8.55v14.1a38.7 38.7 0 0 1-5.6 18.96v7.2l1.36-.27 2.51 4.51zm-36.98-9.87l8.26 1.69 8.68-1.73v-3.49l-.7.67c-2.22 2-4.63 3.04-7.05 3.04a13.96 13.96 0 0 1-9.19-4.11zm8.72-3.26c1.73.16 3.5-.56 5.24-2.14 4.33-3.92 8.62-10.04 8.98-22.9-13.32-5.82-23.16-2.83-27.89-.48-1.9.94-2.97 1.77-3.12 1.89.15-.12 1.23-.95 3.12-1.9l.02-1.54-.02 1.55c.03 15.62 6.14 24.8 13.67 25.52zm-12.12-4.98z"/><path id="21-c" d="M791.02 1473.62v-79.12h39.16v79.12z"/><clipPath id="21-b"><use xlink:href="#21-a"/></clipPath></defs><use fill="#65aacd" xlink:href="#21-a" transform="translate(-801 -1403)"/><g clip-path="url(#21-b)" transform="translate(-801 -1403)"><use fill="#6ebadf" xlink:href="#21-c"/></g></svg><svg xmlns:xlink="http://www.w3.org/1999/xlink" width="72" height="72" id="3" y="841"><defs><path id="3-a" d="M812.23 216.49a18.95 18.95 0 0 1 37.88 0c0 10.44-8.5 18.93-18.94 18.93a18.96 18.96 0 0 1-18.94-18.93zm24.3-5.66l.99-3.81a12.14 12.14 0 0 0-4.9-1.12v-2.97h-3.31v3.2c-3.62.72-5.71 3.04-5.71 6.02 0 3.26 2.46 4.96 6.07 6.17 2.5.85 3.59 1.65 3.59 2.94 0 1.34-1.32 2.1-3.24 2.1-2.2 0-4.2-.72-5.62-1.5l-1 3.95c1.28.75 3.47 1.35 5.74 1.46v3.2h3.31v-3.44c3.88-.68 6.01-3.24 6.01-6.25 0-3.03-1.63-4.89-5.64-6.31-2.87-1.08-4.06-1.79-4.06-2.9 0-.95.71-1.89 2.9-1.89 2.44 0 4 .77 4.88 1.15zm16.98 5.66a22.36 22.36 0 0 0-44.69 0 22.37 22.37 0 0 0 22.35 22.33 22.36 22.36 0 0 0 22.34-22.33zm-51.65-35.6h57.64a6.95 6.95 0 0 1 6.94 6.93v57.6a6.95 6.95 0 0 1-6.94 6.93h-57.64a6.95 6.95 0 0 1-6.94-6.94v-57.6a6.95 6.95 0 0 1 6.94-6.93zm0 3.4zm0 64.65z"/><path id="3-c" d="M791.52 255.75v-79.12h39.16v79.12z"/><clipPath id="3-b"><use xlink:href="#3-a"/></clipPath></defs><use fill="#65aacd" xlink:href="#3-a" transform="translate(-795 -181)"/><g clip-path="url(#3-b)" transform="translate(-795 -181)"><use fill="#6ebadf" xlink:href="#3-c"/></g></svg><svg xmlns:xlink="http://www.w3.org/1999/xlink" width="72" height="72" id="4" y="913"><defs><path id="4-a" d="M533.4 415.99a1.7 1.7 0 0 0-3.24-1.01l-6.79 21.8a1.7 1.7 0 0 0 3.24 1zm-16.04 21v-22.07a1.7 1.7 0 0 0-3.4 0v22.07a1.7 1.7 0 0 0 3.4 0zm-10.52 1.9a1.7 1.7 0 0 0 1.11-2.12l-6.78-21.8a1.7 1.7 0 0 0-3.24 1.02l6.78 21.8a1.7 1.7 0 0 0 2.13 1.1zm44.13-36.84c.32.45.4 1.03.2 1.55l-16.95 47.55a1.68 1.68 0 0 1-1.6 1.13H498.7c-.72 0-1.35-.45-1.6-1.13l-16.95-47.55a1.69 1.69 0 0 1 1.6-2.27h67.83c.56 0 1.07.27 1.39.72zm-69.55-17.73a1.7 1.7 0 1 1 .64-3.33l32.4 6.35.98-3.46a1.7 1.7 0 0 1 3.27.94l-.91 3.17 32.1 6.3a1.7 1.7 0 0 1-.32 3.37c-.1 0-.2-.02-.32-.04l-33.83-6.64c-.08 0-.16-.02-.23-.04zm35.87 5.45z"/><path id="4-c" d="M476.5 456.53v-79.12h39.16v79.12z"/><clipPath id="4-b"><use xlink:href="#4-a"/></clipPath></defs><use fill="#65aacd" xlink:href="#4-a" transform="translate(-480 -381)"/><g clip-path="url(#4-b)" transform="translate(-480 -381)"><use fill="#6ebadf" xlink:href="#4-c"/></g></svg><svg xmlns:xlink="http://www.w3.org/1999/xlink" width="72" height="72" id="5" y="985"><defs><path id="5-a" d="M708.93 425.9c0 5.63-4.58 10.21-10.22 10.21h-23.84v12.76h11.07c.94 0 1.7.77 1.7 1.7 0 .94-.76 1.7-1.7 1.7H660.4a1.7 1.7 0 0 1-1.7-1.7c0-.93.76-1.7 1.7-1.7h11.07v-12.76h-23.84a10.22 10.22 0 0 1-10.22-10.2v-34.04c0-5.63 4.58-10.2 10.22-10.2h51.08c5.64 0 10.22 4.57 10.22 10.2zm-69.81-28.07zm66.4 0v-3.4h-64.7v3.4zm-64.7 26.37h64.7v-3.4h-64.7zm32.35 8.5zm-34.05-38.28z"/><path id="5-c" d="M634.01 456.53v-79.12h39.16v79.12z"/><clipPath id="5-b"><use xlink:href="#5-a"/></clipPath></defs><use fill="#65aacd" xlink:href="#5-a" transform="translate(-637 -381)"/><g clip-path="url(#5-b)" transform="translate(-637 -381)"><use fill="#6ebadf" xlink:href="#5-c"/></g></svg><svg xmlns:xlink="http://www.w3.org/1999/xlink" width="73" height="72" id="6" y="1057"><defs><path id="6-a" d="M798.05 432.84a36.07 36.07 0 0 1-.59-30.25l.28-.65a35.96 35.96 0 0 1 48.4-17.16 35.64 35.64 0 0 1 9.67 6.89 35.97 35.97 0 0 1 0 50.83 36.03 36.03 0 0 1-57.76-9.66zm25.45-1.93c-.9-.43-2-1.07-3.13-1.97a14.02 14.02 0 0 1-4.42-6.04l-14.71 8.68a33.01 33.01 0 0 0 14.46 14.46l7.77-15.07zm10.22-2.2a12.04 12.04 0 0 0 8.53-9.3 12.05 12.05 0 0 0-2.49-9.95 10.78 10.78 0 0 0-5.94-3.97l-.2-.05a12.1 12.1 0 0 0-14.85 15.09 10.65 10.65 0 0 0 3.5 5.53l.2.18a12.05 12.05 0 0 0 11.25 2.47zm10.99-5.8c-.7 1.83-1.77 3.49-3.2 4.92a16.42 16.42 0 0 1-4.35 3.08l.04.1 7.75 15.03a32.7 32.7 0 0 0 14.46-14.46l-14.66-8.65zm-28.94-34.94c-1.77.88-5.14 2.8-8.45 6.12a31.81 31.81 0 0 0-6.02 8.33l15.15 7.79c.6-1.21 1.56-2.83 3.07-4.34a13.84 13.84 0 0 1 4.93-3.2L815.8 388zm43.58 14.45a32.84 32.84 0 0 0-14.11-14.28l-.35-.18-8.7 14.7a14.03 14.03 0 0 1 6.04 4.43 16.5 16.5 0 0 1 1.98 3.13l.06-.03zm3.81.08zm-.35 1.9zm-2 1.11zm2.4 25.98zm-7.5 10.95zm-10.84 7.41zm-26.9-.78zm-.3.43zm-1.9.35z"/><path id="6-c" d="M790.66 457.38v-79.12h39.16v79.12z"/><clipPath id="6-b"><use xlink:href="#6-a"/></clipPath></defs><use fill="#65aacd" xlink:href="#6-a" transform="translate(-794 -381)"/><g clip-path="url(#6-b)" transform="translate(-794 -381)"><use fill="#6ebadf" xlink:href="#6-c"/></g></svg><svg xmlns:xlink="http://www.w3.org/1999/xlink" width="71" height="74" id="7" y="1129"><defs><path id="7-a" d="M536.46 629.02a14.1 14.1 0 0 1 14.11 14.07 14.12 14.12 0 0 1-28.23 0 14.1 14.1 0 0 1 14.12-14.07zm10.71 14.07a10.72 10.72 0 0 0-21.43 0 10.71 10.71 0 0 0 21.43 0zm-5.32-1.1v2.33h-4.12v4.09h-2.33v-4.09h-4.13V642h4.13v-4.14h2.33V642zm-14.98-31.7a26.7 26.7 0 0 1-1.46 16.32 38.97 38.97 0 0 1-5.14 16.32v7.24l1.35-.27 2.52 4.47 12.75 6.29-.06 1.1c-.07 1.53-1.54 2.52-2 2.78a51.54 51.54 0 0 1-26.36 7.23 51.54 51.54 0 0 1-26.27-7.17l-.17-.11c-.46-.36-1.56-1.3-1.82-2.42l-.3-1.34 13.03-6.02 1.98-4.84 1.63.33v-7.3c-2.76-4.32-4.54-10.06-4.87-16.47l.05.11-.05-.1c-1.72-4.89-2.64-12.5-.63-17.8 1.73-4.49 5.9-6.1 7.25-6.5a17.2 17.2 0 0 1 10.79-3.55c8.54 0 16.35 5.14 17.78 11.7zm-31.85 13.92c0 12.63 5.87 22.7 13.64 23.44 1.73.16 3.49-.56 5.24-2.13 4.58-4.11 8.13-13.28 8.23-21.33-.22-4.2-1.89-6.66-2.83-7.73a18.36 18.36 0 0 1-18.84-3.96c-4.69 1.35-5.39 8.45-5.45 11.71-.03 1 .01 1.63.01 1.65 0-.02-.04-.66-.01-1.65zm13.18 28.34l8.67-1.71v-3.46c-.23.23-.46.45-.7.66-2.21 1.99-4.63 3.02-7.04 3.02-.26 0-.52-.02-.78-.04a14.2 14.2 0 0 1-8.4-3.98v3.84z"/><path id="7-c" d="M470.54 674.33v-79.12h39.16v79.12z"/><clipPath id="7-b"><use xlink:href="#7-a"/></clipPath></defs><use fill="#65aacd" xlink:href="#7-a" transform="translate(-480 -598)"/><g clip-path="url(#7-b)" transform="translate(-480 -598)"><use fill="#6ebadf" xlink:href="#7-c"/></g></svg><svg xmlns:xlink="http://www.w3.org/1999/xlink" width="72" height="72" id="8" y="1203"><defs><path id="8-a" d="M673.17 599.45a35.78 35.78 0 0 1 35.76 35.73 35.78 35.78 0 0 1-35.76 35.73 35.78 35.78 0 0 1-35.76-35.73 35.78 35.78 0 0 1 35.76-35.73zm28.17 35.73a1.7 1.7 0 0 0-3.42 0 24.76 24.76 0 0 1-24.75 24.72 1.7 1.7 0 1 0 0 3.42 28.19 28.19 0 0 0 28.17-28.14zm-6.81 0a1.7 1.7 0 0 0-3.42 0c0 9.88-8.05 17.92-17.94 17.92a1.7 1.7 0 0 0 0 3.42 21.37 21.37 0 0 0 21.36-21.34zm-15.34.13a6.15 6.15 0 1 0-12.29 0 6.15 6.15 0 0 0 12.3 0zm-4.31-26.57c0-.93-.76-1.7-1.71-1.7a28.19 28.19 0 0 0-28.16 28.14 1.7 1.7 0 0 0 3.42 0 24.76 24.76 0 0 1 24.74-24.73c.95 0 1.7-.76 1.7-1.7zm0 6.81c0-.94-.76-1.7-1.71-1.7a21.36 21.36 0 0 0-21.35 21.33 1.7 1.7 0 0 0 3.42 0c0-9.88 8.04-17.92 17.93-17.92.95 0 1.7-.76 1.7-1.71zm30.63 19.63zm-32.34-32.31zm-32.34 32.31z"/><path id="8-c" d="M634.01 675.18v-79.12h39.16v79.12z"/><clipPath id="8-b"><use xlink:href="#8-a"/></clipPath></defs><use fill="#65aacd" xlink:href="#8-a" transform="translate(-637 -599)"/><g clip-path="url(#8-b)" transform="translate(-637 -599)"><use fill="#6ebadf" xlink:href="#8-c"/></g></svg><svg xmlns:xlink="http://www.w3.org/1999/xlink" width="72" height="71" id="9" y="1275"><defs><path id="9-a" d="M865.4 606.72c.64.28 1.04.9 1.02 1.6-.02.62-.48 15.42-5.07 30.49-6.23 20.44-17.13 31.25-31.53 31.25-14.42 0-25.03-10.82-30.69-31.3a128.4 128.4 0 0 1-4.2-30.49c0-.63.35-1.2.91-1.5.58-.3 14.48-7.33 34.83-7.33a86.32 86.32 0 0 1 34.73 7.28zm-24.51 30.33v-14.39c0-.93-.77-1.7-1.7-1.7h-3.41v-4.22a1.7 1.7 0 0 0-3.4 0v4.23h-4.26v-4.23a1.7 1.7 0 0 0-3.4 0v4.23h-3.41c-.94 0-1.7.76-1.7 1.69v14.39c0 .93.76 1.7 1.7 1.7h6.8v14.38a1.7 1.7 0 0 0 3.41 0v-14.39h7.66c.94 0 1.7-.76 1.7-1.7zm-11.07 29.62c-28.76 0-31.26-49.42-31.48-57.34.22 7.92 2.72 57.34 31.48 57.34z"/><path id="9-c" d="M790.66 674.33v-79.12h39.16v79.12z"/><clipPath id="9-b"><use xlink:href="#9-a"/></clipPath></defs><use fill="#65aacd" xlink:href="#9-a" transform="translate(-795 -599)"/><g clip-path="url(#9-b)" transform="translate(-795 -599)"><use fill="#6ebadf" xlink:href="#9-c"/></g></svg></svg>
